<svg xmlns="http://www.w3.org/2000/svg" xmlns:xlink="http://www.w3.org/1999/xlink" width="500" zoomAndPan="magnify" viewBox="0 0 375 374.999991" height="500" preserveAspectRatio="xMidYMid meet" version="1.0"><defs><clipPath id="07299d4b0c"><path d="M 135 3.527344 L 251 3.527344 L 251 120 L 135 120 Z M 135 3.527344 " clip-rule="nonzero"/></clipPath><clipPath id="89c4370ab5"><path d="M 30.808594 127 L 362 127 L 362 371.777344 L 30.808594 371.777344 Z M 30.808594 127 " clip-rule="nonzero"/></clipPath><clipPath id="20dc9656e4"><path d="M 144.878906 214.265625 L 247.628906 214.265625 L 247.628906 317.015625 L 144.878906 317.015625 Z M 144.878906 214.265625 " clip-rule="nonzero"/></clipPath></defs><g clip-path="url(#07299d4b0c)"><path fill="#ffffff" d="M 192.949219 119.125 C 224.652344 119.125 250.484375 93.296875 250.484375 61.527344 C 250.484375 29.761719 224.652344 3.871094 192.949219 3.871094 C 161.242188 3.871094 135.414062 29.699219 135.414062 61.46875 C 135.414062 93.234375 161.242188 119.066406 192.949219 119.066406 Z M 177.035156 74.382812 C 178.871094 71.566406 182.664062 70.773438 185.480469 72.609375 C 188.050781 74.320312 190.988281 75.054688 194.050781 74.871094 C 197.417969 74.6875 199.742188 73.402344 200.230469 72.914062 C 200.722656 72.242188 201.027344 71.199219 200.78125 70.464844 C 200.414062 69.300781 198.824219 68.507812 197.84375 68.140625 C 197.171875 67.894531 196.4375 67.648438 195.640625 67.40625 C 194.722656 67.097656 193.804688 66.792969 192.824219 66.488281 C 188.050781 64.773438 181.378906 61.710938 178.6875 54.550781 C 177.09375 50.207031 177.828125 45.429688 180.707031 41.390625 C 182.847656 38.453125 185.910156 36.371094 189.335938 35.269531 L 189.335938 32.945312 C 189.460938 29.578125 192.398438 26.824219 195.640625 26.945312 C 199.007812 27.007812 201.699219 29.824219 201.640625 33.191406 L 201.640625 35.578125 C 203.90625 36.3125 206.230469 37.351562 208.128906 38.699219 C 210.882812 40.65625 211.496094 44.511719 209.535156 47.265625 C 207.578125 50.023438 203.722656 50.632812 200.964844 48.675781 C 199.558594 47.695312 196.5 46.714844 194.785156 46.53125 C 192.949219 46.53125 191.355469 47.449219 190.621094 48.492188 C 190.4375 48.738281 189.886719 49.59375 190.132812 50.207031 C 190.804688 52.042969 192.886719 53.511719 196.925781 54.917969 C 197.785156 55.222656 198.640625 55.46875 199.4375 55.714844 C 200.414062 56.019531 201.394531 56.328125 202.191406 56.632812 C 207.515625 58.652344 211.1875 62.324219 212.597656 66.976562 C 213.882812 71.507812 212.902344 76.402344 209.839844 80.441406 C 207.945312 82.890625 204.457031 84.847656 200.414062 86.011719 L 200.414062 89.5625 C 200.230469 92.867188 197.539062 95.5625 194.234375 95.5625 C 194.234375 95.5625 194.109375 95.5625 194.109375 95.5625 C 190.746094 95.5 188.050781 92.683594 188.113281 89.316406 L 188.113281 86.5625 C 184.867188 85.890625 181.6875 84.664062 178.808594 82.828125 C 175.992188 80.992188 175.199219 77.199219 177.035156 74.382812 Z M 177.035156 74.382812 " fill-opacity="1" fill-rule="nonzero"/></g><path fill="#ffffff" d="M 108.664062 223.363281 L 108.664062 222.628906 L 108.296875 222.996094 C 108.296875 222.996094 108.480469 223.363281 108.664062 223.363281 Z M 108.664062 223.363281 " fill-opacity="1" fill-rule="nonzero"/><g clip-path="url(#89c4370ab5)"><path fill="#ffffff" d="M 359.863281 242.277344 C 353.070312 234.257812 338.867188 230.402344 325.035156 238.542969 C 324.789062 238.664062 324.605469 238.789062 324.363281 238.972656 C 323.199219 238.605469 321.976562 238.359375 320.691406 238.238281 C 319.773438 238.175781 319.039062 238.238281 318.179688 238.238281 C 316.710938 180.519531 258.871094 133.878906 187.929688 133.878906 C 157.449219 133.878906 128.25 142.507812 104.929688 158.238281 C 96.421875 145.261719 83.203125 131.367188 64.71875 128 C 62.511719 127.574219 60.25 128.429688 58.839844 130.203125 C 57.433594 131.980469 57.128906 134.367188 57.984375 136.449219 C 58.105469 136.753906 70.101562 165.09375 72.429688 190.921875 C 68.144531 197.59375 64.71875 204.632812 62.269531 211.917969 L 53.027344 211.917969 C 40.722656 211.917969 30.746094 220.425781 30.746094 230.890625 L 30.746094 265.167969 C 30.746094 275.636719 40.722656 284.144531 53.027344 284.144531 L 68.878906 284.144531 C 74.386719 294.242188 81.855469 303.425781 90.851562 311.6875 L 90.851562 344.433594 C 90.851562 359.183594 102.789062 371.121094 117.539062 371.121094 C 132.289062 371.121094 144.226562 359.125 144.226562 344.433594 L 144.226562 340.882812 C 158.242188 344.984375 172.871094 347.125 187.929688 347.125 C 198.761719 347.125 209.414062 346.085938 219.636719 343.945312 L 219.636719 344.433594 C 219.636719 359.183594 231.570312 371.121094 246.320312 371.121094 C 261.074219 371.121094 273.007812 359.125 273.007812 344.433594 L 273.007812 321.359375 C 285.617188 312.484375 296.328125 301.402344 303.980469 289.285156 C 309.242188 280.898438 313.039062 272.148438 315.425781 263.027344 C 315.671875 264.191406 316.039062 265.292969 316.527344 266.394531 C 318.855469 271.71875 323.445312 274.902344 328.769531 274.902344 L 328.890625 274.902344 C 333.972656 274.902344 338.011719 271.78125 339.417969 266.820312 C 341.074219 261.007812 339.050781 253.292969 334.953125 247.355469 C 342.234375 244.785156 348.171875 247.480469 350.5 250.234375 C 352.703125 252.804688 356.558594 253.109375 359.128906 250.90625 C 361.699219 248.703125 362.003906 244.847656 359.800781 242.277344 Z M 236.222656 179.722656 C 235 181.3125 233.222656 182.109375 231.386719 182.109375 C 230.101562 182.109375 228.753906 181.679688 227.652344 180.824219 C 192.886719 154.015625 158.425781 177.027344 157.019531 178.007812 C 154.203125 179.90625 150.410156 179.234375 148.511719 176.417969 C 146.613281 173.601562 147.285156 169.867188 150.042969 167.910156 C 150.46875 167.601562 193.132812 138.710938 235.121094 171.09375 C 237.8125 173.171875 238.304688 176.96875 236.222656 179.660156 Z M 108.664062 234.871094 C 102.113281 234.871094 96.789062 229.546875 96.789062 222.996094 C 96.789062 216.445312 102.113281 211.121094 108.664062 211.121094 C 115.214844 211.121094 120.539062 216.445312 120.539062 222.996094 C 120.539062 229.546875 115.214844 234.871094 108.664062 234.871094 Z M 108.664062 234.871094 " fill-opacity="1" fill-rule="nonzero"/></g><g clip-path="url(#20dc9656e4)"><path fill="#1da50d" d="M 196.390625 214.265625 C 168.007812 214.265625 144.878906 237.390625 144.878906 265.773438 C 144.878906 294.15625 168.007812 317.289062 196.390625 317.289062 C 224.773438 317.289062 247.90625 294.15625 247.90625 265.773438 C 247.90625 237.390625 224.773438 214.265625 196.390625 214.265625 Z M 196.390625 225.316406 C 218.800781 225.316406 236.851562 243.363281 236.851562 265.773438 C 236.851562 288.183594 218.800781 306.234375 196.390625 306.234375 C 173.980469 306.234375 155.933594 288.183594 155.933594 265.773438 C 155.933594 243.363281 173.980469 225.316406 196.390625 225.316406 Z M 196.390625 225.316406 " fill-opacity="1" fill-rule="nonzero"/></g><path fill="#1da50d" d="M 171.347656 262.785156 C 169.300781 264.832031 169.300781 268.125 171.34375 270.167969 L 185.113281 283.9375 C 185.371094 284.195312 185.644531 284.417969 185.933594 284.609375 C 186.078125 284.707031 186.230469 284.792969 186.378906 284.871094 C 188.351562 285.910156 190.835938 285.597656 192.496094 283.9375 L 221.4375 255 C 223.480469 252.953125 223.480469 249.660156 221.4375 247.613281 C 219.390625 245.570312 216.097656 245.570312 214.054688 247.613281 L 188.804688 272.863281 L 178.730469 262.785156 C 176.683594 260.742188 173.390625 260.742188 171.347656 262.785156 Z M 171.347656 262.785156 " fill-opacity="1" fill-rule="nonzero"/></svg>