<svg xmlns="http://www.w3.org/2000/svg" xmlns:xlink="http://www.w3.org/1999/xlink" width="500" zoomAndPan="magnify" viewBox="0 0 375 374.999991" height="500" preserveAspectRatio="xMidYMid meet" version="1.0"><defs><clipPath id="07a602be37"><path d="M 135 3.527344 L 251 3.527344 L 251 120 L 135 120 Z M 135 3.527344 " clip-rule="nonzero"/></clipPath><clipPath id="85396bab06"><path d="M 30.808594 127 L 362 127 L 362 371.4375 L 30.808594 371.4375 Z M 30.808594 127 " clip-rule="nonzero"/></clipPath><clipPath id="f2efd074d7"><path d="M 144.878906 214.265625 L 247.851562 214.265625 L 247.851562 317.238281 L 144.878906 317.238281 Z M 144.878906 214.265625 " clip-rule="nonzero"/></clipPath></defs><g clip-path="url(#07a602be37)"><path fill="#1da50d" d="M 192.949219 119.121094 C 224.65625 119.121094 250.484375 93.292969 250.484375 61.523438 C 250.484375 29.757812 224.65625 3.867188 192.949219 3.867188 C 161.242188 3.867188 135.414062 29.695312 135.414062 61.464844 C 135.414062 93.230469 161.242188 119.0625 192.949219 119.0625 Z M 177.035156 74.378906 C 178.871094 71.5625 182.667969 70.765625 185.480469 72.601562 C 188.050781 74.316406 190.992188 75.050781 194.050781 74.867188 C 197.417969 74.683594 199.742188 73.398438 200.234375 72.910156 C 200.722656 72.234375 201.027344 71.195312 200.785156 70.460938 C 200.417969 69.296875 198.824219 68.503906 197.847656 68.136719 C 197.171875 67.890625 196.4375 67.644531 195.640625 67.402344 C 194.722656 67.09375 193.804688 66.789062 192.828125 66.484375 C 188.050781 64.769531 181.378906 61.707031 178.6875 54.546875 C 177.097656 50.199219 177.832031 45.425781 180.707031 41.386719 C 182.851562 38.449219 185.910156 36.367188 189.339844 35.265625 L 189.339844 32.941406 C 189.460938 29.574219 192.398438 26.820312 195.640625 26.941406 C 199.007812 27.003906 201.703125 29.820312 201.640625 33.183594 L 201.640625 35.570312 C 203.90625 36.308594 206.230469 37.347656 208.128906 38.695312 C 210.882812 40.652344 211.496094 44.507812 209.535156 47.261719 C 207.578125 50.015625 203.722656 50.628906 200.96875 48.671875 C 199.558594 47.691406 196.5 46.710938 194.785156 46.527344 C 192.949219 46.527344 191.359375 47.445312 190.625 48.488281 C 190.441406 48.730469 189.890625 49.589844 190.132812 50.199219 C 190.808594 52.039062 192.886719 53.507812 196.929688 54.914062 C 197.785156 55.21875 198.640625 55.464844 199.4375 55.710938 C 200.417969 56.015625 201.394531 56.320312 202.191406 56.628906 C 207.515625 58.648438 211.191406 62.320312 212.597656 66.972656 C 213.882812 71.5 212.902344 76.398438 209.84375 80.4375 C 207.945312 82.886719 204.457031 84.84375 200.417969 86.007812 L 200.417969 89.558594 C 200.234375 92.863281 197.539062 95.558594 194.234375 95.558594 C 194.234375 95.558594 194.113281 95.558594 194.113281 95.558594 C 190.746094 95.496094 188.050781 92.679688 188.113281 89.3125 L 188.113281 86.558594 C 184.871094 85.886719 181.6875 84.660156 178.808594 82.824219 C 175.996094 80.988281 175.199219 77.195312 177.035156 74.378906 Z M 177.035156 74.378906 " fill-opacity="1" fill-rule="nonzero"/></g><path fill="#1da50d" d="M 108.664062 223.359375 L 108.664062 222.625 L 108.296875 222.992188 C 108.296875 222.992188 108.480469 223.359375 108.664062 223.359375 Z M 108.664062 223.359375 " fill-opacity="1" fill-rule="nonzero"/><g clip-path="url(#85396bab06)"><path fill="#1da50d" d="M 359.867188 242.273438 C 353.070312 234.253906 338.871094 230.398438 325.039062 238.539062 C 324.792969 238.664062 324.609375 238.785156 324.363281 238.96875 C 323.203125 238.601562 321.976562 238.355469 320.691406 238.234375 C 319.773438 238.171875 319.039062 238.234375 318.183594 238.234375 C 316.714844 180.515625 258.871094 133.875 187.929688 133.875 C 157.449219 133.875 128.25 142.503906 104.929688 158.234375 C 96.421875 145.257812 83.203125 131.363281 64.71875 127.996094 C 62.511719 127.570312 60.25 128.425781 58.839844 130.199219 C 57.433594 131.976562 57.128906 134.363281 57.984375 136.445312 C 58.105469 136.75 70.105469 165.089844 72.429688 190.917969 C 68.144531 197.589844 64.71875 204.628906 62.269531 211.914062 L 53.027344 211.914062 C 40.722656 211.914062 30.746094 220.421875 30.746094 230.890625 L 30.746094 265.164062 C 30.746094 275.632812 40.722656 284.140625 53.027344 284.140625 L 68.878906 284.140625 C 74.386719 294.238281 81.855469 303.421875 90.851562 311.683594 L 90.851562 344.429688 C 90.851562 359.183594 102.789062 371.117188 117.539062 371.117188 C 132.292969 371.117188 144.226562 359.121094 144.226562 344.429688 L 144.226562 340.882812 C 158.242188 344.980469 172.871094 347.125 187.929688 347.125 C 198.765625 347.125 209.414062 346.082031 219.636719 343.941406 L 219.636719 344.429688 C 219.636719 359.183594 231.570312 371.117188 246.324219 371.117188 C 261.074219 371.117188 273.011719 359.121094 273.011719 344.429688 L 273.011719 321.355469 C 285.621094 312.480469 296.332031 301.402344 303.980469 289.28125 C 309.246094 280.894531 313.039062 272.144531 315.429688 263.023438 C 315.671875 264.1875 316.039062 265.289062 316.53125 266.390625 C 318.855469 271.714844 323.445312 274.898438 328.769531 274.898438 L 328.894531 274.898438 C 333.972656 274.898438 338.015625 271.777344 339.421875 266.820312 C 341.074219 261.003906 339.054688 253.292969 334.953125 247.355469 C 342.238281 244.785156 348.175781 247.476562 350.5 250.230469 C 352.703125 252.800781 356.558594 253.109375 359.128906 250.902344 C 361.703125 248.699219 362.007812 244.84375 359.804688 242.273438 Z M 236.222656 179.71875 C 235 181.308594 233.222656 182.105469 231.386719 182.105469 C 230.101562 182.105469 228.757812 181.675781 227.65625 180.820312 C 192.886719 154.011719 158.425781 177.027344 157.019531 178.003906 C 154.203125 179.902344 150.410156 179.230469 148.511719 176.414062 C 146.613281 173.597656 147.289062 169.863281 150.042969 167.90625 C 150.46875 167.597656 193.132812 138.707031 235.121094 171.089844 C 237.816406 173.167969 238.304688 176.964844 236.222656 179.65625 Z M 108.664062 234.867188 C 102.117188 234.867188 96.789062 229.542969 96.789062 222.992188 C 96.789062 216.445312 102.117188 211.117188 108.664062 211.117188 C 115.214844 211.117188 120.539062 216.445312 120.539062 222.992188 C 120.539062 229.542969 115.214844 234.867188 108.664062 234.867188 Z M 108.664062 234.867188 " fill-opacity="1" fill-rule="nonzero"/></g><g clip-path="url(#f2efd074d7)"><path fill="#ffffff" d="M 196.378906 214.265625 C 168 214.265625 144.878906 237.386719 144.878906 265.761719 C 144.878906 294.140625 168 317.265625 196.378906 317.265625 C 224.753906 317.265625 247.878906 294.140625 247.878906 265.761719 C 247.878906 237.386719 224.753906 214.265625 196.378906 214.265625 Z M 196.378906 225.316406 C 218.78125 225.316406 236.828125 243.359375 236.828125 265.761719 C 236.828125 288.167969 218.78125 306.214844 196.378906 306.214844 C 173.972656 306.214844 155.929688 288.167969 155.929688 265.761719 C 155.929688 243.359375 173.972656 225.316406 196.378906 225.316406 Z M 196.378906 225.316406 " fill-opacity="1" fill-rule="nonzero"/></g><path fill="#ffffff" d="M 171.339844 262.773438 C 169.296875 264.820312 169.292969 268.113281 171.339844 270.15625 L 185.105469 283.921875 C 185.359375 284.175781 185.636719 284.402344 185.925781 284.59375 C 186.070312 284.6875 186.21875 284.777344 186.371094 284.855469 C 188.339844 285.894531 190.824219 285.582031 192.488281 283.921875 L 221.417969 254.988281 C 223.464844 252.945312 223.464844 249.652344 221.417969 247.605469 C 219.375 245.5625 216.082031 245.5625 214.039062 247.605469 L 188.796875 272.847656 L 178.722656 262.773438 C 176.675781 260.730469 173.382812 260.730469 171.339844 262.773438 Z M 171.339844 262.773438 " fill-opacity="1" fill-rule="nonzero"/></svg>